<svg width="189" height="73" viewBox="0 0 189 73" fill="none" xmlns="http://www.w3.org/2000/svg">
<path d="M22.5123 12.088V35H16.5283V25.528H8.75225V35H2.76825V12.088H8.75225V20.376H16.5283V12.088H22.5123ZM40.1218 12.088L48.6978 35H42.4897L41.0178 30.808H33.0818L31.6098 35H25.4657L34.0417 12.088H40.1218ZM39.6418 26.52L38.5538 23.416C37.9138 21.5387 37.4231 19.8213 37.0818 18.264C36.6551 19.928 36.1324 21.6667 35.5138 23.48L34.4578 26.52H39.6418ZM72.6665 26.072C72.5172 28.4613 71.6958 30.52 70.2025 32.248C68.3038 34.4667 65.5945 35.576 62.0745 35.576C58.3198 35.576 55.4078 34.2747 53.3385 31.672C51.5678 29.4747 50.6825 26.7547 50.6825 23.512C50.6825 20.1627 51.6958 17.3467 53.7225 15.064C55.8345 12.696 58.6825 11.512 62.2665 11.512C65.2532 11.512 67.7385 12.44 69.7225 14.296C71.4292 15.896 72.3572 17.8587 72.5065 20.184H66.6825C66.4478 19.1387 66.0852 18.3493 65.5945 17.816C64.7625 16.8987 63.6212 16.44 62.1705 16.44C60.3785 16.44 58.9918 17.1547 58.0105 18.584C57.1785 19.8427 56.7625 21.496 56.7625 23.544C56.7625 25.912 57.2958 27.7253 58.3625 28.984C59.3012 30.0933 60.5492 30.648 62.1065 30.648C63.7065 30.648 64.9225 30.0613 65.7545 28.888C66.2025 28.248 66.5118 27.3093 66.6825 26.072H72.6665ZM97.5415 12.088L89.0295 21.08L98.5975 35H91.1735L84.9975 25.4L82.5335 27.928V35H76.5495V12.088H82.5335V17.816V19.512V21.08C83.3655 19.928 84.0695 19.0213 84.6455 18.36L90.1495 12.088H97.5415ZM119.448 12.088V17.016H107.096V20.824H118.392V25.528H107.096V30.072H119.736V35H101.112V12.088H119.448ZM124.079 12.088H135.375C137.701 12.088 139.471 12.4507 140.687 13.176C142.757 14.392 143.791 16.2373 143.791 18.712C143.791 19.992 143.471 21.1333 142.831 22.136C142.191 23.1387 141.327 23.864 140.239 24.312C141.199 24.568 141.967 25.144 142.543 26.04C142.927 26.6373 143.183 27.256 143.311 27.896C143.461 28.5147 143.631 29.9333 143.823 32.152C143.973 33.56 144.165 34.4347 144.399 34.776L144.591 35H138.479C138.287 34.552 138.063 32.952 137.807 30.2C137.637 28.8133 137.253 27.8533 136.655 27.32C136.058 26.7653 135.087 26.488 133.743 26.488H130.063V35H124.079V12.088ZM130.063 16.792V22.2H134.287C136.698 22.2 137.903 21.2827 137.903 19.448C137.903 17.6773 136.677 16.792 134.223 16.792H130.063ZM66.5153 48.088V71H60.6912L54.5153 60.6L53.2033 58.264C52.9686 57.88 52.6486 57.2293 52.2433 56.312C52.3926 57.9973 52.4673 59.9387 52.4673 62.136V71H46.6432V48.088H52.6913L58.3873 57.784C59.4966 59.704 60.3499 61.304 60.9473 62.584C60.7766 60.344 60.6912 58.3707 60.6912 56.664V48.088H66.5153ZM90.0105 48.088V53.016H77.6585V56.824H88.9545V61.528H77.6585V66.072H90.2985V71H71.6745V48.088H90.0105ZM123.538 48.088L117.234 71H111.25L109.458 63.288C109.138 61.9867 108.818 60.3013 108.498 58.232C108.284 56.9307 108.103 55.896 107.954 55.128C107.847 55.7893 107.687 56.8027 107.474 58.168C107.239 59.7893 106.93 61.464 106.546 63.192L104.818 71H98.7378L92.4977 48.088H98.5138L100.242 55.48C100.924 58.488 101.458 61.6027 101.842 64.824C102.268 61.5173 102.802 58.4347 103.442 55.576L105.17 48.088H110.866L112.466 55.128C113.212 58.456 113.778 61.688 114.162 64.824C114.61 61.2187 115.207 57.8693 115.954 54.776L117.522 48.088H123.538ZM144.086 54.968H138.39C138.304 53.0907 137.078 52.152 134.71 52.152C132.64 52.152 131.606 52.824 131.606 54.168C131.606 54.7867 131.883 55.2347 132.438 55.512C132.907 55.7467 134.411 56.184 136.95 56.824C139.36 57.4427 141.11 58.0933 142.198 58.776C144.075 59.928 145.014 61.656 145.014 63.96C145.014 66.4773 144.022 68.4187 142.038 69.784C140.31 70.9787 138.038 71.576 135.222 71.576C131.808 71.576 129.206 70.7547 127.414 69.112C125.835 67.6827 125.024 65.7413 124.982 63.288H130.998C131.126 65.72 132.608 66.936 135.446 66.936C137.771 66.936 138.934 66.1573 138.934 64.6C138.934 63.8747 138.624 63.3413 138.006 63C137.408 62.6373 135.904 62.1147 133.494 61.432C130.571 60.6 128.608 59.7573 127.606 58.904C126.432 57.9013 125.846 56.4507 125.846 54.552C125.846 52.2907 126.784 50.5093 128.661 49.208C130.304 48.0773 132.406 47.512 134.966 47.512C138.016 47.512 140.342 48.248 141.942 49.72C143.328 51 144.043 52.7493 144.086 54.968Z" fill="#F0BD27"/>
<path d="M153 12.5247H180.753V41.0001C180.753 44.3138 178.067 47.0001 174.753 47.0001H159C155.686 47.0001 153 44.3138 153 41.0001V12.5247Z" fill="#F0BD27"/>
<path d="M179.017 20.1648H187V35.5439H179.017" stroke="#F0BD27" stroke-width="3" stroke-linecap="round" stroke-linejoin="round"/>
<path fill-rule="evenodd" clip-rule="evenodd" d="M166.818 33.333L162.122 35.9355L163.019 30.4233L159.22 26.5196L164.47 25.7153L166.818 20.7002L169.166 25.7153L174.417 26.5196L170.617 30.4233L171.514 35.9355L166.818 33.333Z" fill="#001542"/>
<path d="M166.877 1.44326V8.53534" stroke="#F0BD27" stroke-width="2" stroke-linecap="round"/>
<path d="M154.436 3.3999L159.193 8.41477" stroke="#F0BD27" stroke-width="2" stroke-linecap="round"/>
<path d="M179.377 3.39981L174.62 8.41467" stroke="#F0BD27" stroke-width="2" stroke-linecap="round"/>
<rect x="151" y="51" width="38" height="20" fill="#F0BD27"/>
<path d="M154.6 57.4H152.76V55.8H158.2V57.4H156.36V67H154.6V57.4ZM162.593 67.16C161.729 67.16 161.068 66.9147 160.609 66.424C160.15 65.9333 159.921 65.24 159.921 64.344V58.456C159.921 57.56 160.15 56.8667 160.609 56.376C161.068 55.8853 161.729 55.64 162.593 55.64C163.457 55.64 164.118 55.8853 164.577 56.376C165.036 56.8667 165.265 57.56 165.265 58.456V64.344C165.265 65.24 165.036 65.9333 164.577 66.424C164.118 66.9147 163.457 67.16 162.593 67.16ZM162.593 65.56C163.201 65.56 163.505 65.192 163.505 64.456V58.344C163.505 57.608 163.201 57.24 162.593 57.24C161.985 57.24 161.681 57.608 161.681 58.344V64.456C161.681 65.192 161.985 65.56 162.593 65.56ZM167.515 55.8H170.203C171.078 55.8 171.734 56.0347 172.171 56.504C172.609 56.9733 172.827 57.6613 172.827 58.568V64.232C172.827 65.1387 172.609 65.8267 172.171 66.296C171.734 66.7653 171.078 67 170.203 67H167.515V55.8ZM170.171 65.4C170.459 65.4 170.678 65.3147 170.827 65.144C170.987 64.9733 171.067 64.696 171.067 64.312V58.488C171.067 58.104 170.987 57.8267 170.827 57.656C170.678 57.4853 170.459 57.4 170.171 57.4H169.275V65.4H170.171ZM176.404 55.8H178.788L180.612 67H178.852L178.532 64.776V64.808H176.532L176.212 67H174.58L176.404 55.8ZM178.324 63.288L177.54 57.752H177.508L176.74 63.288H178.324ZM183.408 62.232L181.28 55.8H183.152L184.352 59.912H184.384L185.584 55.8H187.296L185.168 62.232V67H183.408V62.232Z" fill="#001542"/>
</svg>
